<?xml version="1.0" encoding="UTF-8"?>
<svg version="1.1" xmlns="http://www.w3.org/2000/svg" width="1181" height="1417">
<path d="M0 0 C2.74203002 0.00460601 5.48361365 -0.00221651 8.22558594 -0.02050781 C33.8259135 -0.1892916 59.25280254 1.18478599 84.44946289 6.06567383 C85.11949341 6.19228394 85.78952393 6.31889404 86.4798584 6.44934082 C116.81623935 12.19075759 146.86312707 20.78831162 174.69946289 34.31567383 C175.70009766 34.79834717 175.70009766 34.79834717 176.72094727 35.29077148 C180.74787406 37.24307374 184.74155316 39.25334089 188.71948242 41.3034668 C190.68189821 42.3066944 192.65603899 43.28300382 194.63305664 44.25708008 C225.74563516 59.85296237 253.28981086 82.71665463 277.78613281 107.21704102 C279.25902261 108.68773793 280.73976555 110.15020917 282.22094727 111.61254883 C288.48973712 117.84437256 294.21364291 124.37910922 299.69946289 131.31567383 C300.7244401 132.57021522 301.7514864 133.82307182 302.78149414 135.07348633 C359.73566578 205.02363848 391.05362025 293.14961085 412.44946289 436.69067383 C412.62300293 438.52988403 412.62300293 438.52988403 412.80004883 440.40625 C413.14615014 444.37352834 413.43862412 448.34208524 413.69946289 452.31567383 C413.78251678 453.53049942 413.78251678 453.53049942 413.86724854 454.76986694 C414.64884519 466.80407856 414.70409365 478.72542481 414.21712875 490.7686348 C412.824856 525.69788051 413.00778699 554.57953116 428.9758606 586.46121216 C433.51917728 595.62316949 437.34920548 605.01423374 441.11352539 614.51489258 C441.43271313 615.32020794 441.75190086 616.1255233 442.08076096 616.95524216 C443.71707342 621.08953041 445.34691995 625.2263303 446.97369385 629.36437988 C449.89009884 636.77652867 452.85377891 644.16978625 455.81321335 651.56483078 C457.35450554 655.4181635 458.89201236 659.27300573 460.42993164 663.12768555 C462.71818172 668.86153333 465.01210876 674.59306972 467.31080627 680.32273865 C477.29451364 705.22241831 486.58205188 730.36683334 495.71185303 755.59106445 C496.61731349 758.08904079 497.52672662 760.58552332 498.43823242 763.08129883 C516.19630848 811.74646293 530.94223736 861.63241626 541.69946289 912.31567383 C541.83912476 912.96908752 541.97878662 913.62250122 542.12268066 914.29571533 C545.56957378 930.45157161 548.30614348 946.63836471 550.51196289 963.00317383 C550.6700795 964.17610992 550.6700795 964.17610992 550.83139038 965.3727417 C551.49558581 970.34924286 552.11514367 975.32914766 552.69946289 980.31567383 C552.81435059 981.28891602 552.92923828 982.2621582 553.04760742 983.26489258 C554.00198552 992.77111307 553.92131582 1002.34093348 553.93969727 1011.88549805 C553.94937535 1014.91328706 553.98047121 1017.94038773 554.01196289 1020.96801758 C554.22363476 1059.99357436 554.22363476 1059.99357436 544.01196289 1070.44067383 C543.24883789 1071.05942383 542.48571289 1071.67817383 541.69946289 1072.31567383 C541.36946289 1072.64567383 541.03946289 1072.97567383 540.69946289 1073.31567383 C530.12051459 1072.93785425 523.48968617 1067.47844857 515.98071289 1060.44458008 C514.20258907 1058.78520083 512.42191348 1057.2516723 510.51196289 1055.75317383 C506.84117934 1052.57182808 503.83668059 1049.01478127 500.69946289 1045.31567383 C499.81535959 1044.30410778 498.92984117 1043.29377749 498.04321289 1042.28442383 C490.16652298 1033.27569118 482.86135168 1023.89868697 475.69946289 1014.31567383 C475.129375 1013.55593262 474.55928711 1012.79619141 473.97192383 1012.01342773 C465.21938854 1000.3311633 456.85024103 988.42416469 448.69946289 976.31567383 C447.82839729 975.02919644 446.95730512 973.74273703 446.08618164 972.45629883 C439.40545823 962.54835712 433.0399499 952.44370707 426.69946289 942.31567383 C426.64000488 943.12270752 426.58054687 943.92974121 426.51928711 944.76123047 C420.19934475 1027.34530229 386.7431928 1102.6314313 330.98852539 1163.80395508 C329.3874117 1165.5608085 327.79992639 1167.33013534 326.22290039 1169.10864258 C317.46982332 1178.88162096 308.08042513 1188.26352061 297.69946289 1196.31567383 C302.25361963 1198.36351612 306.8020872 1200.04847006 311.55981445 1201.55859375 C395.74201255 1228.33006391 395.74201255 1228.33006391 412.69946289 1260.31567383 C416.41854626 1268.50806027 416.18462276 1276.06810895 413.76196289 1284.62817383 C404.02337206 1297.31785278 382.37870789 1298.87713761 367.69604492 1300.93066406 C356.72778186 1302.3325087 345.72598174 1303.20922233 334.69946289 1304.00317383 C333.4439563 1304.0944455 333.4439563 1304.0944455 332.16308594 1304.18756104 C326.01167933 1304.62606371 319.85796463 1304.99245499 313.69946289 1305.31567383 C312.76170013 1305.36546387 311.82393738 1305.41525391 310.85775757 1305.46655273 C288.00757264 1306.6161402 265.1324345 1306.46934421 242.26025391 1306.44604492 C236.6763963 1306.44039314 231.0925868 1306.44371797 225.50873089 1306.44946957 C185.39186972 1306.48484138 145.38341449 1305.65212621 105.31744766 1303.63157654 C102.7086492 1303.50049503 100.09974634 1303.37167788 97.49081421 1303.24328613 C73.82117873 1302.07400524 50.19804637 1300.66578177 26.59228516 1298.53515625 C10.35381591 1297.07418422 -5.18330382 1297.42589946 -21.41210938 1298.85409546 C-41.85575821 1300.63943589 -62.30569043 1301.97066043 -82.80053711 1303.00317383 C-83.98941528 1303.06356842 -85.17829346 1303.12396301 -86.40319824 1303.18618774 C-103.03058772 1304.02423974 -119.66139145 1304.75619055 -136.30053711 1305.31567383 C-136.95032532 1305.33802723 -137.60011353 1305.36038063 -138.26959229 1305.38341141 C-165.21250776 1306.30722519 -192.14112707 1306.4738018 -219.09838867 1306.44604492 C-224.70267649 1306.44032021 -230.30691713 1306.4437618 -235.91120338 1306.4494772 C-265.95625765 1306.47562219 -295.95666795 1306.40998667 -325.92553711 1304.00317383 C-326.7341922 1303.939758 -327.54284729 1303.87634216 -328.37600708 1303.81100464 C-391.14325741 1298.83580813 -391.14325741 1298.83580813 -402.36303711 1286.25317383 C-406.19473978 1280.44381816 -405.87113339 1274.09570021 -405.30053711 1267.31567383 C-403.45974481 1258.85797946 -398.32059644 1253.26490893 -392.30053711 1247.31567383 C-391.72948242 1246.72270508 -391.15842773 1246.12973633 -390.57006836 1245.51879883 C-383.56730548 1238.78845464 -374.66276772 1234.13039413 -366.30053711 1229.31567383 C-365.20418945 1228.68290527 -365.20418945 1228.68290527 -364.08569336 1228.03735352 C-340.59265669 1214.66586474 -314.88064679 1205.76768922 -289.30053711 1197.31567383 C-289.30053711 1196.65567383 -289.30053711 1195.99567383 -289.30053711 1195.31567383 C-291.34294377 1193.2918345 -293.4142756 1191.36179756 -295.55053711 1189.44067383 C-321.3371309 1165.78668741 -321.3371309 1165.78668741 -331.20678711 1153.01879883 C-332.79021165 1150.97452685 -334.39941515 1149.00980919 -336.08178711 1147.05004883 C-350.8031802 1129.74240214 -363.25367146 1110.13986273 -374.30053711 1090.31567383 C-374.63134277 1089.73624023 -374.96214844 1089.15680664 -375.30297852 1088.55981445 C-399.02035968 1046.97510454 -412.84785286 999.38400384 -416.06689453 951.74316406 C-416.34001807 948.90547611 -416.80629294 946.12248317 -417.30053711 943.31567383 C-417.92508789 944.2525 -418.54963867 945.18932617 -419.19311523 946.15454102 C-421.54890951 949.68823242 -423.90470378 953.22192383 -426.26049805 956.75561523 C-427.02281738 957.89909424 -427.02281738 957.89909424 -427.80053711 959.06567383 C-429.28881836 961.2980957 -429.28881836 961.2980957 -430.77709961 963.53051758 C-431.26223022 964.25823868 -431.74736084 964.98595978 -432.24719238 965.73573303 C-433.22048716 967.19562433 -434.19387588 968.655453 -435.1673584 970.11521912 C-437.31743742 973.33953578 -439.46665774 976.56440088 -441.61108398 979.79248047 C-456.71070109 1002.50440454 -472.78039085 1024.82965744 -491.19506836 1044.98754883 C-493.05120423 1047.03997366 -494.83424703 1049.13413092 -496.61303711 1051.25317383 C-504.43808981 1060.18315295 -514.51453325 1070.97287756 -526.55053711 1073.50317383 C-530.27415445 1073.31699296 -532.25960405 1072.92244502 -534.92553711 1070.24926758 C-557.26498304 1038.83442173 -543.48607843 975.81113483 -537.66772461 941.18676758 C-528.49446425 887.44121718 -513.39998335 834.76464901 -495.65600586 783.26000977 C-494.38441705 779.56830759 -493.13738052 775.86863988 -491.89428711 772.16723633 C-486.97454731 757.59988165 -481.71575549 743.16581779 -476.36303711 728.75317383 C-476.04395386 727.89239227 -475.72487061 727.03161072 -475.39611816 726.14474487 C-462.84354064 692.33221895 -449.14360084 658.95757634 -435.67553711 625.50317383 C-432.30589647 617.13290955 -428.93703681 608.7623324 -425.56993484 600.39104652 C-423.82521666 596.05469929 -422.07836637 591.71921163 -420.33169746 587.38364983 C-419.11308273 584.34977932 -417.90399676 581.31223038 -416.69537354 578.27436829 C-415.08141188 574.22674012 -413.41503776 570.20594147 -411.71380615 566.19425964 C-407.14659683 555.27583514 -403.94722331 546.31668033 -404.45678711 534.34301758 C-404.47990077 532.36209214 -404.50301068 530.38116666 -404.52593231 528.40023899 C-404.56904798 525.69266689 -404.65513305 522.9871444 -404.74084473 520.28063965 C-404.839526 516.92890684 -404.89413683 513.57656948 -404.94897461 510.22387695 C-404.95991779 509.56245508 -404.97086098 508.90103321 -404.98213577 508.21956825 C-404.99850145 507.22803025 -404.99850145 507.22803025 -405.01519775 506.21646118 C-405.05950387 503.55604342 -405.10827387 500.89569616 -405.16156006 498.23544312 C-405.51548238 478.58551293 -404.83124834 458.88984729 -403.05053711 439.31567383 C-402.95683334 438.26044525 -402.95683334 438.26044525 -402.86123657 437.18389893 C-395.43636432 354.17124281 -375.34676392 272.36465133 -317.30053711 168.31567383 C-316.61677002 167.28071777 -316.61677002 167.28071777 -315.91918945 166.22485352 C-306.33469137 151.80154622 -295.86205695 138.05612811 -284.54272461 124.95239258 C-282.32310659 122.41803079 -282.32310659 122.41803079 -280.62084961 119.96020508 C-280.18514648 119.41750977 -279.74944336 118.87481445 -279.30053711 118.31567383 C-278.64053711 118.31567383 -277.98053711 118.31567383 -277.30053711 118.31567383 C-277.06351074 117.75340088 -276.82648438 117.19112793 -276.58227539 116.61181641 C-275.0066441 113.7891855 -273.08479353 111.85795377 -270.79272461 109.57739258 C-269.4353418 108.22291016 -269.4353418 108.22291016 -268.05053711 106.84106445 C-267.57745117 106.37418213 -267.10436523 105.9072998 -266.61694336 105.42626953 C-265.19595528 104.02333262 -263.78333268 102.6119389 -262.37084961 101.20043945 C-257.17446156 96.03707929 -251.90312207 91.03561938 -246.30053711 86.31567383 C-245.69741699 85.80576904 -245.09429687 85.29586426 -244.47290039 84.77050781 C-228.75088532 71.60137022 -212.36712384 59.91158597 -194.60375977 49.65307617 C-192.55553692 48.46374347 -190.52565865 47.24949276 -188.49975586 46.02270508 C-146.65810085 21.06323846 -97.28959903 8.15483025 -49.30053711 2.31567383 C-48.53683807 2.22244843 -47.77313904 2.12922302 -46.98629761 2.03317261 C-31.34730819 0.20228653 -15.72753555 -0.02853213 0 0 Z " fill="#000000" transform="translate(586.300537109375,55.684326171875)"/>
<path d="M0 0 C17.80997254 1.97888584 35.36947092 5.79444926 53 9 C53.33 72.03 53.66 135.06 54 200 C108.60022122 208.62108756 166.07464666 214.38226336 221.11303711 206.27539062 C225.05851108 205.89902744 229.03661583 206 233 206 C233 148.25 233 90.5 233 31 C253.109375 31.0825 273.21875 31.165 293.9375 31.25 C311.94736178 31.27449575 311.94736178 31.27449575 329.95703125 31.2421875 C331.01889534 31.23877421 331.01889534 31.23877421 332.10221124 31.23529196 C364.19974116 31.12724201 396.03344915 30.10425106 428 27 C429.20108398 26.88638123 430.40216797 26.77276245 431.63964844 26.65570068 C449.12099084 25.00154294 466.56756587 23.10608072 484 21 C484.98198364 20.88164795 485.96396729 20.7632959 486.97570801 20.64135742 C502.81830439 18.72504893 518.64897069 16.69915975 534.4375 14.375 C535.10942383 14.27614502 535.78134766 14.17729004 536.47363281 14.07543945 C541.01568999 13.37557339 545.52455805 12.52694756 550.0390625 11.66796875 C556.85515507 10.3730723 563.68626583 9.18258755 570.52734375 8.02734375 C571.53564743 7.85704651 572.54395111 7.68674927 573.58280945 7.5112915 C577.76133861 6.80691129 581.9402271 6.10469414 586.11938477 5.40405273 C589.21404564 4.88465406 592.30821379 4.36239446 595.40234375 3.83984375 C596.33376694 3.68458725 597.26519012 3.52933075 598.22483826 3.36936951 C603.22657581 2.52323381 608.16916006 1.55958435 613.10475159 0.38502502 C615.43004435 -0.08736471 617.63530603 -0.1525609 620 0 C621.42486251 5.96862255 622.48960181 11.8854206 623.21875 17.9765625 C623.32215698 18.82253998 623.42556396 19.66851746 623.53210449 20.54013062 C623.74952448 22.33327102 623.96453214 24.12670541 624.17724609 25.92041016 C624.49024389 28.54324643 624.81683975 31.16412152 625.14453125 33.78515625 C628.7688024 63.48738131 629.35165463 93.0675621 629.31567383 122.94946289 C629.3110452 127.09931281 629.31797355 131.24886943 629.33618164 135.39868164 C629.44935965 161.43379494 628.73475292 187.10109164 626 213 C625.81967728 214.75972137 625.81967728 214.75972137 625.63571167 216.55499268 C624.0715081 231.73084088 621.22855387 246.47726819 617.82226562 261.34545898 C617.23118713 263.97249402 616.66249203 266.59857002 616.11523438 269.23461914 C613.86093602 279.97092886 610.90121391 290.30316788 607.375 300.6875 C607.11432739 301.46315308 606.85365479 302.23880615 606.58508301 303.03796387 C602.09837806 316.35482069 597.05077407 329.30652832 591 342 C590.48276367 343.09465576 590.48276367 343.09465576 589.95507812 344.21142578 C582.74432895 359.36032426 574.74025708 374.32428551 565 388 C564.48920898 388.71833008 563.97841797 389.43666016 563.45214844 390.17675781 C556.44853122 399.98022201 549.30284948 409.25936391 541 418 C539.88911215 419.28589073 538.7845434 420.57727793 537.6875 421.875 C529.29609392 431.49056414 520.08011059 440.18145268 510 448 C508.73416061 449.00624078 507.46855135 450.01277109 506.203125 451.01953125 C481.79983863 470.25547086 454.90613369 484.49176012 425.70214844 495.01757812 C423.49756989 495.81909819 421.31247409 496.64951841 419.1328125 497.515625 C397.44004693 505.89571537 373.93978042 509.01317375 351 512 C349.98292969 512.13422363 348.96585938 512.26844727 347.91796875 512.40673828 C318.2972405 516.13027749 287.5248636 514.92952204 258 511 C256.98663574 510.86609863 255.97327148 510.73219727 254.92919922 510.59423828 C202.97165432 503.38155537 154.23493719 482.11899663 113 450 C112.04867187 449.26394531 111.09734375 448.52789063 110.1171875 447.76953125 C104.27949209 443.12551385 98.78086467 438.13093054 93.3125 433.0625 C92.59191406 432.39887451 91.87132812 431.73524902 91.12890625 431.05151367 C90.46375 430.42736572 89.79859375 429.80321777 89.11328125 429.16015625 C88.51298096 428.59949463 87.91268066 428.03883301 87.29418945 427.46118164 C86 426 86 426 86 424 C85.34 424 84.68 424 84 424 C82.66015625 422.70703125 82.66015625 422.70703125 81.0625 420.8125 C80.43730469 420.07386719 79.81210937 419.33523438 79.16796875 418.57421875 C78.45253906 417.72472656 77.73710937 416.87523437 77 416 C76.19175781 415.07832031 75.38351562 414.15664062 74.55078125 413.20703125 C42.5389978 376.53877186 20.49689848 330.8514901 8 284 C7.52235985 282.27858354 7.04447529 280.55723489 6.56640625 278.8359375 C3.1008817 266.16426168 0.50595046 253.5130791 -1.56445312 240.54443359 C-1.97551442 238.143043 -2.46817555 235.7751748 -2.984375 233.39453125 C-4.48965679 226.00337952 -5.20175692 218.49332554 -6 211 C-6.11051697 209.99317169 -6.11051697 209.99317169 -6.2232666 208.96600342 C-12.06348083 155.28274102 -11.58714447 98.68049097 -6 45 C-5.91796326 44.19919006 -5.83592651 43.39838013 -5.75140381 42.57330322 C-4.28369415 28.31862752 -2.76323274 14.07184948 0 0 Z " fill="#FEFEFE" transform="translate(281,790)"/>
<path d="M0 0 C2.72318635 2.72318635 3.63921507 5.92288363 4.94921875 9.46875 C5.23849747 10.23924179 5.52777618 11.00973358 5.82582092 11.80357361 C6.78579384 14.36682451 7.73705091 16.93320368 8.6875 19.5 C9.35898101 21.30349229 10.03053161 23.10695867 10.70214844 24.91040039 C38.54164051 99.84414736 64.77189085 176.18595471 78 262 C78.15982361 263.06423187 78.15982361 263.06423187 78.32287598 264.14996338 C81.19814128 283.46908129 82.37796334 302.59283417 82.4375 322.125 C82.44376404 323.08773834 82.45002808 324.05047668 82.45648193 325.04238892 C82.62404859 365.57572118 82.62404859 365.57572118 72.3125 376.125 C71.1678125 377.053125 71.1678125 377.053125 70 378 C69.67 378.33 69.34 378.66 69 379 C58.4210517 378.62218042 51.79022328 373.16277474 44.28125 366.12890625 C42.50312618 364.469527 40.72245059 362.93599847 38.8125 361.4375 C35.14171645 358.25615426 32.1372177 354.69910744 29 351 C28.1158967 349.98843395 27.23037828 348.97810366 26.34375 347.96875 C18.46706009 338.96001735 11.16188879 329.58301314 4 320 C3.42991211 319.24025879 2.85982422 318.48051758 2.27246094 317.69775391 C-6.48007435 306.01548947 -14.84922186 294.10849086 -23 282 C-23.8710656 280.71352261 -24.74215777 279.4270632 -25.61328125 278.140625 C-32.29400466 268.23268329 -38.65951299 258.12803324 -45 248 C-45.08918701 249.21055054 -45.08918701 249.21055054 -45.18017578 250.44555664 C-51.50011814 333.02962846 -84.95627009 408.31575747 -140.7109375 469.48828125 C-142.31205119 471.24513467 -143.8995365 473.01446151 -145.4765625 474.79296875 C-154.22963957 484.56594713 -163.61903776 493.94784678 -174 502 C-169.44584326 504.04784229 -164.89737569 505.73279623 -160.13964844 507.24291992 C-75.95745034 534.01439008 -75.95745034 534.01439008 -59 566 C-55.28091663 574.19238644 -55.51484013 581.75243512 -57.9375 590.3125 C-67.67609083 603.00217896 -89.320755 604.56146378 -104.00341797 606.61499023 C-114.97168103 608.01683487 -125.97348116 608.8935485 -137 609.6875 C-138.25550659 609.77877167 -138.25550659 609.77877167 -139.53637695 609.87188721 C-145.68778356 610.31038988 -151.84149826 610.67678116 -158 611 C-159.40664413 611.07468506 -159.40664413 611.07468506 -160.84170532 611.15087891 C-183.69189025 612.30046637 -206.56702839 612.15367038 -229.43920898 612.13037109 C-235.02306659 612.12471931 -240.60687609 612.12804414 -246.190732 612.13379574 C-286.30759317 612.16916755 -326.3160484 611.33645238 -366.38201523 609.31590271 C-368.99081369 609.1848212 -371.59971655 609.05600405 -374.20864868 608.9276123 C-397.87828416 607.75833141 -421.50141652 606.35010795 -445.10717773 604.21948242 C-461.34564698 602.7585104 -476.88276671 603.11022563 -493.11157227 604.53842163 C-513.5552211 606.32376206 -534.00515332 607.6549866 -554.5 608.6875 C-555.68887817 608.74789459 -556.87775635 608.80828918 -558.10266113 608.87051392 C-574.73005061 609.70856592 -591.36085435 610.44051673 -608 611 C-608.64978821 611.0223534 -609.29957642 611.0447068 -609.96905518 611.06773758 C-636.91197065 611.99155136 -663.84058996 612.15812798 -690.79785156 612.13037109 C-696.40213938 612.12464638 -702.00638002 612.12808797 -707.61066628 612.13380337 C-737.65572054 612.15994836 -767.65613084 612.09431284 -797.625 609.6875 C-798.43365509 609.62408417 -799.24231018 609.56066833 -800.07546997 609.49533081 C-862.8427203 604.5201343 -862.8427203 604.5201343 -874.0625 591.9375 C-877.89420268 586.12814433 -877.57059628 579.78002638 -877 573 C-875.1592077 564.54230564 -870.02005933 558.9492351 -864 553 C-863.42894531 552.40703125 -862.85789062 551.8140625 -862.26953125 551.203125 C-855.26676837 544.47278081 -846.36223061 539.8147203 -838 535 C-836.90365234 534.36723145 -836.90365234 534.36723145 -835.78515625 533.72167969 C-812.29211958 520.35019091 -786.58010968 511.4520154 -761 503 C-761 502.34 -761 501.68 -761 501 C-763.04240666 498.97616067 -765.11373849 497.04612373 -767.25 495.125 C-793.03659379 471.47101359 -793.03659379 471.47101359 -802.90625 458.703125 C-804.48967454 456.65885302 -806.09887804 454.69413536 -807.78125 452.734375 C-822.50264309 435.42672831 -834.95313435 415.82418891 -846 396 C-846.33080566 395.42056641 -846.66161133 394.84113281 -847.00244141 394.24414062 C-870.71982257 352.65943071 -884.54731575 305.06833001 -887.76635742 257.42749023 C-888.03948096 254.58980228 -888.50575583 251.80680934 -889 249 C-889.62455078 249.93682617 -890.24910156 250.87365234 -890.89257812 251.83886719 C-893.2483724 255.37255859 -895.60416667 258.90625 -897.95996094 262.43994141 C-898.72228027 263.58342041 -898.72228027 263.58342041 -899.5 264.75 C-900.98828125 266.98242188 -900.98828125 266.98242188 -902.4765625 269.21484375 C-902.96169312 269.94256485 -903.44682373 270.67028595 -903.94665527 271.4200592 C-904.91995005 272.8799505 -905.89333877 274.33977917 -906.86682129 275.79954529 C-909.01690031 279.02386196 -911.16612064 282.24872706 -913.31054688 285.47680664 C-928.41016398 308.18873071 -944.47985374 330.51398361 -962.89453125 350.671875 C-964.75066713 352.72429983 -966.53370992 354.81845709 -968.3125 356.9375 C-976.1375527 365.86747913 -986.21399614 376.65720373 -998.25 379.1875 C-1001.97361734 379.00131913 -1003.95906694 378.60677119 -1006.625 375.93359375 C-1028.96444593 344.51874791 -1015.18554132 281.495461 -1009.3671875 246.87109375 C-1000.19392714 193.12554335 -985.09944624 140.44897518 -967.35546875 88.94433594 C-966.08387995 85.25263376 -964.83684341 81.55296605 -963.59375 77.8515625 C-958.55946433 62.9468892 -953.16620089 48.18335521 -947.6875 33.4375 C-947.34279663 32.50839813 -946.99809326 31.57929626 -946.64294434 30.62203979 C-942.94472496 20.6675446 -939.2118766 10.75112493 -935 1 C-930.14240669 1.6915605 -925.52997991 2.92419412 -920.83984375 4.328125 C-919.23614409 4.80065977 -917.63238196 5.27298255 -916.02856445 5.74511719 C-915.19700836 5.99112671 -914.36545227 6.23713623 -913.50869751 6.49060059 C-900.74858132 10.25928219 -888.01190396 13.89583644 -875.03125 16.83203125 C-868.92037396 18.22030579 -862.87174765 19.84154318 -856.8125 21.4375 C-837.76086017 26.41996841 -818.56871498 30.70538479 -799.3125 34.8125 C-798.59672791 34.96565674 -797.88095581 35.11881348 -797.14349365 35.27661133 C-795.09233502 35.71453568 -793.0404602 36.14891626 -790.98828125 36.58203125 C-789.80790283 36.83186768 -788.62752441 37.0817041 -787.41137695 37.33911133 C-783.95146508 38.00940271 -780.49240164 38.53098774 -777 39 C-776.87038841 44.52392242 -777.32033114 49.62351667 -778.3125 55.0625 C-779.7452276 63.57226746 -780.72204704 72.1002632 -781.5625 80.6875 C-781.67698486 81.8226001 -781.79146973 82.9577002 -781.90942383 84.12719727 C-782.3158649 88.41542422 -782.66800654 92.70543683 -783 97 C-783.08331573 98.06069702 -783.16663147 99.12139404 -783.25247192 100.2142334 C-784.92151984 122.07581248 -785.36405806 143.85742294 -785.31765366 165.77749634 C-785.31241955 168.41555012 -785.31050169 171.05359207 -785.30899048 173.69165039 C-785.28321121 199.56062951 -784.7812982 225.25840446 -782 251 C-781.8772168 252.2060791 -781.75443359 253.4121582 -781.62792969 254.65478516 C-780.18705292 268.58524523 -777.85998218 282.29500906 -775 296 C-774.83886719 296.78600586 -774.67773438 297.57201172 -774.51171875 298.38183594 C-772.36672935 308.77980286 -769.71205161 318.944605 -766.58496094 329.08935547 C-766.05597841 330.81715899 -765.54635913 332.55086168 -765.0390625 334.28515625 C-751.73352756 379.26241326 -728.8819128 427.19517884 -694.6875 460.234375 C-693 462 -693 462 -693 464 C-692.34 464 -691.68 464 -691 464 C-689.625 465.43359375 -689.625 465.43359375 -688 467.4375 C-671.6164982 486.60184157 -648.83549523 501.69309027 -627 514 C-626.24154785 514.42780762 -625.4830957 514.85561523 -624.70166016 515.29638672 C-603.54939944 527.08916488 -581.3017853 535.52551989 -558 542 C-557.28086426 542.20318848 -556.56172852 542.40637695 -555.82080078 542.61572266 C-514.57712429 554.13983884 -468.44159058 556.60105275 -426 551 C-424.76121094 550.83870605 -423.52242187 550.67741211 -422.24609375 550.51123047 C-386.44512165 545.76871757 -352.56308957 536.88610325 -320 521 C-319.2584668 520.64147949 -318.51693359 520.28295898 -317.75292969 519.91357422 C-283.90367547 503.35888432 -252.34441932 478.65491452 -229 449 C-227.5420565 447.27050463 -226.08371367 445.54134583 -224.625 443.8125 C-214.03361315 430.81648286 -205.3812427 416.48286143 -197 402 C-196.63310059 401.37367676 -196.26620117 400.74735352 -195.88818359 400.10205078 C-174.51541094 363.32754337 -163.52279989 321.48032192 -156 280 C-155.81945068 279.00887207 -155.63890137 278.01774414 -155.45288086 276.99658203 C-154.06266961 269.04106929 -153.10205392 261.04195663 -152.19506836 253.02001953 C-151.93938427 250.7666066 -151.67605022 248.51417766 -151.41210938 246.26171875 C-151.24172232 244.77349069 -151.07178637 243.28521089 -150.90234375 241.796875 C-150.75273193 240.49073242 -150.60312012 239.18458984 -150.44897461 237.83886719 C-149.06362544 223.80530813 -148.83738529 209.83518171 -148.83203125 195.74609375 C-148.82880399 193.71330239 -148.82543893 191.68051125 -148.82194519 189.64772034 C-148.81599453 185.40096501 -148.81410079 181.1542299 -148.81469727 176.9074707 C-148.81477808 172.62096903 -148.80790185 168.33457524 -148.79418945 164.0480957 C-148.6747008 126.11619729 -149.54068249 88.38754631 -156.08569336 50.90722656 C-156.77891817 46.87544225 -157.05088641 43.08426579 -157 39 C-155.58750977 38.7071814 -155.58750977 38.7071814 -154.14648438 38.40844727 C-120.94833911 31.51576079 -87.74712962 24.58014203 -54.98925781 15.79541016 C-52.02559708 15.00681112 -49.05721643 14.23981752 -46.0859375 13.48046875 C-35.96924083 10.89121263 -25.90362439 8.16322473 -15.875 5.25 C-14.86091064 4.95609375 -13.84682129 4.6621875 -12.80200195 4.359375 C-11.85413818 4.0809375 -10.90627441 3.8025 -9.9296875 3.515625 C-8.68034424 3.14872559 -8.68034424 3.14872559 -7.40576172 2.77441406 C-4.88352364 1.96250629 -2.44840154 1.01121329 0 0 Z " fill="#000000" transform="translate(1058,750)"/>
<path d="M0 0 C2.61377188 0.49540095 5.16768533 1.05870414 7.75 1.6875 C8.44738281 1.84927734 9.14476562 2.01105469 9.86328125 2.17773438 C14.36017306 3.25167902 18.76404432 4.5275185 23.17578125 5.91015625 C30.20599611 8.10002074 37.29404208 9.96809581 44.4375 11.75 C45.11706757 11.91952179 45.79663513 12.08904358 46.49679565 12.26370239 C89.02499222 22.82655255 132.42151097 31.20140148 175.7520752 37.66204834 C178.20900481 38.03142166 180.66458873 38.40902423 183.12011719 38.78759766 C227.65292324 45.63265277 272.36470997 50.24415411 317.3125 53.3125 C318.4954364 53.39390228 319.6783728 53.47530457 320.89715576 53.55917358 C349.13427388 55.4740864 377.36344088 56.20589157 405.65888977 56.18867874 C407.8502721 56.18747933 410.04164974 56.18803962 412.23303223 56.18869019 C431.9213938 56.1874395 451.576641 55.90427034 471.25 55.0625 C472.27002106 55.01902435 473.29004211 54.97554871 474.3409729 54.93075562 C477.19121904 54.80554273 480.04096423 54.67300956 482.890625 54.53515625 C483.70518661 54.49655487 484.51974823 54.45795349 485.35899353 54.41818237 C488.95412659 54.23008162 492.50321144 53.96376157 496.07250977 53.48925781 C500.03646729 52.99545717 503.9628408 52.78874176 507.94921875 52.63671875 C521.8554528 51.99184155 535.69719811 50.46693835 549.54099655 49.04563522 C551.83820119 48.80986216 554.13553833 48.57541254 556.43289185 48.34109497 C602.30070256 43.65255832 648.23263784 38.21707035 693.39160156 28.7421875 C697.72178912 27.85153999 702.05940343 27.00254799 706.3984375 26.15625 C725.33382445 22.4527727 744.1075654 18.4412648 762.83105469 13.77294922 C767.78723236 12.56406952 772.76849047 11.47372139 777.75 10.375 C788.03789687 8.08412353 798.104349 5.23828871 808.12890625 1.984375 C809.01449219 1.70078125 809.90007813 1.4171875 810.8125 1.125 C811.54082031 0.88007812 812.26914062 0.63515625 813.01953125 0.3828125 C815.40727096 -0.07872299 816.72207727 0.16605469 819 1 C820.37773005 3.59022625 821.45103937 6.01595242 822.4921875 8.7421875 C822.82667908 9.58000763 823.16117065 10.41782776 823.50579834 11.28103638 C824.64335181 14.14017498 825.75874584 17.00748526 826.875 19.875 C827.68512195 21.92249461 828.49685848 23.96935099 829.31005859 26.015625 C830.90415713 30.03125175 832.49330735 34.04875801 834.07641792 38.0687294 C837.88248926 47.73044489 841.743347 57.36996054 845.609375 67.0078125 C846.27579338 68.66973837 846.9421853 70.33167484 847.60855103 71.99362183 C848.61381165 74.5007554 849.61907638 77.00788733 850.62441444 79.51498985 C859.49767355 101.64474795 868.36897173 123.77434247 877 146 C874.44677217 148.55322783 872.44722082 148.87822622 868.96484375 149.828125 C867.06581299 150.35116211 867.06581299 150.35116211 865.12841797 150.88476562 C863.75229444 151.2565689 862.37615485 151.62831271 861 152 C859.62759424 152.37632391 858.25536224 152.75328207 856.88330078 153.13085938 C845.93556763 156.13628734 834.96758107 159.06800347 824 162 C823.29758179 162.18816284 822.59516357 162.37632568 821.87145996 162.57019043 C787.87730485 171.67177859 753.46073049 178.90898925 719 186 C717.8153717 186.2445845 717.8153717 186.2445845 716.60681152 186.49411011 C703.86255176 189.11672254 691.08282404 191.41888158 678.25 193.5625 C674.7757154 194.14521025 671.30180308 194.73009173 667.828125 195.31640625 C666.98045563 195.45893829 666.13278625 195.60147034 665.25942993 195.74832153 C660.25381442 196.59624808 655.27110408 197.51961619 650.2890625 198.49609375 C639.2983296 200.58204211 628.20848084 202.00407686 617.125 203.5 C615.9867276 203.65473785 614.8484552 203.80947571 613.6756897 203.96890259 C598.54921379 206.0246586 583.42665174 208.04677571 568.24414062 209.64648438 C565.27382172 209.97016151 562.30741242 210.31935229 559.34098816 210.67674255 C548.57742452 211.96752172 537.79673687 213.02822121 527 214 C525.97884094 214.09299377 524.95768188 214.18598755 523.90557861 214.28179932 C484.00717652 217.86296207 444.22653106 218.35959432 404.1875 218.3125 C402.96593201 218.31137711 401.74436401 218.31025421 400.48577881 218.30909729 C392.23392633 218.30001418 383.98224421 218.27430629 375.73046875 218.23828125 C374.66675741 218.23468157 373.60304607 218.23108189 372.50710106 218.22737312 C369.45023946 218.2156296 366.39348523 218.19733277 363.33666992 218.17700195 C362.48197113 218.17432438 361.62727234 218.1716468 360.74667358 218.16888809 C351.1338791 218.08868614 341.63027488 217.48151374 332 217 C332 274.75 332 332.5 332 392 C286.42274975 396.67458977 286.42274975 396.67458977 265.1875 396.4375 C263.42536163 396.4267746 263.42536163 396.4267746 261.62762451 396.41583252 C227.65158141 396.20343598 194.39032983 393.40490213 160.80859375 388.3046875 C159.6385656 388.12981812 159.6385656 388.12981812 158.44490051 387.95141602 C153.11939181 387.11939181 153.11939181 387.11939181 152 386 C151.90229305 383.53368729 151.87003902 381.09541002 151.87974548 378.62864685 C151.87846385 377.45742746 151.87846385 377.45742746 151.87715632 376.26254708 C151.87549914 373.6260991 151.88102674 370.98971368 151.88647461 368.35327148 C151.88675646 366.47137453 151.8865988 364.58947746 151.8860321 362.70758057 C151.88574403 357.58176065 151.89164233 352.45596392 151.89860606 347.33014941 C151.90483798 341.97962736 151.90544327 336.62910483 151.90663147 331.27857971 C151.90974526 321.13901642 151.9179593 310.99946386 151.92798096 300.8599053 C151.93914061 289.31959526 151.94465217 277.77928472 151.94967639 266.23897064 C151.96014187 242.49264114 151.97774224 218.74632117 152 195 C150.35473831 195.01272697 150.35473831 195.01272697 148.67623901 195.02571106 C145.40294336 195.00281812 142.63321502 194.68418917 139.4453125 194.01171875 C138.41664063 193.79966797 137.38796875 193.58761719 136.328125 193.36914062 C135.27109375 193.14419922 134.2140625 192.91925781 133.125 192.6875 C126.09193338 191.21411706 119.05765982 189.81362477 111.9765625 188.58984375 C102.03153804 186.86356766 92.13939358 184.89348301 82.25 182.875 C81.30067596 182.6815802 80.35135193 182.4881604 79.3732605 182.28887939 C62.26643195 178.78981615 45.30213907 174.83156891 28.36683655 170.58633423 C23.54828223 169.37951558 18.72306694 168.20459351 13.890625 167.0546875 C1.73003252 164.16051887 -10.39042348 161.21650405 -22.40087891 157.74804688 C-25.63319332 156.81776213 -28.86935428 155.90135179 -32.10546875 154.984375 C-34.65373877 154.26074387 -37.20191569 153.5367848 -39.75 152.8125 C-40.9656665 152.46711182 -42.18133301 152.12172363 -43.43383789 151.76586914 C-44.58489014 151.43707764 -45.73594238 151.10828613 -46.921875 150.76953125 C-47.94893555 150.47667236 -48.97599609 150.18381348 -50.03417969 149.88208008 C-53.04690686 148.98604919 -56.02048779 148.00021866 -59 147 C-54.04868992 133.50256539 -48.70047323 120.17261685 -43.32421875 106.83984375 C-42.39008866 104.51892331 -41.45615808 102.19792255 -40.52241516 99.87684631 C-38.07633591 93.79755103 -35.62821356 87.71908093 -33.17944336 81.64086914 C-29.27226234 71.94228807 -25.36731915 62.24280724 -21.46409035 52.54263496 C-20.11766369 49.19777193 -18.76980689 45.853488 -17.42179871 42.50926208 C-16.57220285 40.3994256 -15.72285793 38.28948805 -14.8737793 36.17944336 C-14.46785396 35.17079192 -14.06192862 34.16214048 -13.64370251 33.12292385 C-10.29057063 24.76936961 -7.01041026 16.38795381 -3.77488995 7.9881506 C-3.42421365 7.08351857 -3.07353735 6.17888655 -2.7122345 5.24684143 C-2.25069332 4.04887105 -2.25069332 4.04887105 -1.77982807 2.82669926 C-1 1 -1 1 0 0 Z " fill="#E91C26" transform="translate(182,604)"/>
<path d="M0 0 C0.92697945 -0.00044186 1.85395889 -0.00088371 2.80902863 -0.00133896 C30.09190464 -0.00815439 57.24278877 0.19222668 84.40930176 2.98382568 C87.23156008 3.27379102 90.05468981 3.55423258 92.87792969 3.83447266 C128.52441959 7.40422408 128.52441959 7.40422408 144.41552734 10.54614258 C147.69485871 11.19008157 150.97457365 11.75982172 154.2734375 12.29296875 C170.39737371 14.93494345 186.37773472 18.45536167 202 23.25 C203.11665039 23.59200439 203.11665039 23.59200439 204.25585938 23.94091797 C240.11787504 35.07709803 240.11787504 35.07709803 249.75 47.3125 C251.47972955 51.37736444 251.51658986 53.06132325 250 57.25 C243.22942954 66.01630335 231.50746637 71.01954792 222 76.25 C221.29842773 76.6433252 220.59685547 77.03665039 219.87402344 77.44189453 C167.64511654 106.70787326 107.10273154 124.67256659 47.76733398 131.90136719 C45.69567929 132.1623573 43.62792715 132.45465608 41.56274414 132.76269531 C29.30780589 134.50522385 17.1059138 134.55504394 4.74487305 134.51074219 C1.20408887 134.50005009 -2.33618455 134.51067886 -5.87695312 134.5234375 C-19.37024175 134.5329238 -32.61983311 134.02801193 -46 132.25 C-46.72273102 132.15438782 -47.44546204 132.05877563 -48.19009399 131.96026611 C-53.14141376 131.28794018 -58.07225693 130.51398833 -63 129.6875 C-63.75403107 129.56194733 -64.50806213 129.43639465 -65.28494263 129.30703735 C-97.67695058 123.84894002 -130.4793731 115.3340244 -160.97802734 103.06298828 C-163.26806942 102.14221551 -165.56591278 101.24217509 -167.86328125 100.33984375 C-222.9678518 78.4638277 -222.9678518 78.4638277 -245 60.25 C-245.86431641 59.53650391 -245.86431641 59.53650391 -246.74609375 58.80859375 C-248.39382062 56.76048465 -248.43305068 55.48230077 -248.4375 52.875 C-248.45683594 52.12476563 -248.47617187 51.37453125 -248.49609375 50.6015625 C-247.55560149 46.14348106 -244.64355589 43.74829362 -241.14453125 41.0390625 C-191.16385057 8.57798735 -117.90175215 4.6363752 -60 1.25 C-58.76121094 1.16459961 -57.52242187 1.07919922 -56.24609375 0.99121094 C-37.53013904 -0.20276552 -18.74530443 0.00409094 0 0 Z " fill="#F8AD07" transform="translate(590,457.75)"/>
<path d="M0 0 C0.76441406 0.23332031 1.52882813 0.46664062 2.31640625 0.70703125 C18.02380384 6.2285723 30.15836198 18.25585567 39 32 C39.50144531 32.74507812 40.00289062 33.49015625 40.51953125 34.2578125 C49.50592945 48.24719229 53.65881623 63.88453371 57 80 C57.17885742 80.75716309 57.35771484 81.51432617 57.54199219 82.29443359 C58.13310726 85.78629776 58.21997356 89.24143838 58.2734375 92.7734375 C58.28596558 93.525681 58.29849365 94.2779245 58.31140137 95.05296326 C58.54203534 112.25253619 58.21933354 128.43443809 53 145 C52.76474609 145.75490723 52.52949219 146.50981445 52.28710938 147.28759766 C47.74183835 161.39609387 40.86349908 174.85083098 31 186 C30.34 186 29.68 186 29 186 C28.773125 186.57878906 28.54625 187.15757812 28.3125 187.75390625 C23.6207837 195.78288504 11.52973473 201.2684669 2.90625 203.96875 C-12.67779611 207.97607614 -26.26176135 205.96095846 -40.2421875 197.890625 C-45.69329561 194.15360471 -50.33608725 189.65081187 -55 185 C-55.7321875 184.29101562 -56.464375 183.58203125 -57.21875 182.8515625 C-67.30937724 172.40055572 -73.09435345 158.46274523 -78 145 C-78.30550781 144.21625 -78.61101562 143.4325 -78.92578125 142.625 C-81.19026595 136.49347221 -82.21885683 130.0879275 -83.3515625 123.671875 C-83.70557963 121.66719969 -84.07605252 119.66413962 -84.52563477 117.67871094 C-87.61051257 100.25859809 -85.56347964 79.90774833 -81 63 C-80.81808105 62.31599121 -80.63616211 61.63198242 -80.44873047 60.92724609 C-73.9736664 37.48624114 -60.32283383 16.02328212 -39.05078125 3.625 C-27.03198367 -2.77681792 -13.05709246 -4.08476853 0 0 Z " fill="#FDFDFD" transform="translate(497,221)"/>
<path d="M0 0 C2.70010876 2.15040672 5.34044095 4.25809272 7.80078125 6.6796875 C7.80078125 7.3396875 7.80078125 7.9996875 7.80078125 8.6796875 C8.46078125 8.6796875 9.12078125 8.6796875 9.80078125 8.6796875 C28.67415074 31.44700498 37.21835233 59.152877 37.17578125 88.5546875 C37.17490509 89.22577545 37.17402893 89.8968634 37.17312622 90.58828735 C37.04682287 120.16468708 29.58057257 149.99347786 9.80078125 172.6796875 C9.27226563 173.36289062 8.74375 174.04609375 8.19921875 174.75 C-0.05775997 185.12206687 -13.94533118 194.10745884 -27.19921875 195.6796875 C-46.30113761 196.75333165 -59.62619063 193.60529026 -74.375 181.0546875 C-90.90917429 166.08344511 -99.90199252 144.1935427 -104.19921875 122.6796875 C-104.36695801 121.92969482 -104.53469727 121.17970215 -104.70751953 120.40698242 C-106.33116046 112.57907382 -106.50864091 104.96835314 -106.44921875 96.9921875 C-106.44545227 96.32816925 -106.44168579 95.664151 -106.43780518 94.98001099 C-106.22005833 62.23275755 -97.43072453 31.32433726 -74.62890625 7.0234375 C-53.38316281 -13.47084877 -24.62809033 -17.86213145 0 0 Z " fill="#FDFDFD" transform="translate(733.19921875,230.3203125)"/>
<path d="M0 0 C5.19850897 1.36780614 10.22982972 3.16489156 15.27636719 5.00683594 C16.50291016 5.45091797 17.72945312 5.895 18.99316406 6.35253906 C98.56787452 35.41387203 98.56787452 35.41387203 112.71386719 64.00683594 C115.70671826 71.32548856 116.35072962 78.24472263 113.38964844 85.66699219 C109.73193864 92.93903974 102.71312413 95.19458362 95.40136719 97.63183594 C70.08368919 105.05253466 41.95688356 106.33240616 15.74276733 107.52441406 C14.09906739 107.59982592 12.45554241 107.67910321 10.81216431 107.76123047 C-12.12762311 108.88230974 -35.07678978 108.78564946 -58.0378418 108.76220703 C-63.6216994 108.75655525 -69.20550891 108.75988008 -74.78936481 108.76563168 C-114.90659489 108.80100381 -154.91595142 107.9701256 -194.98226547 105.94794083 C-197.58785178 105.81673153 -200.19352838 105.68744288 -202.79922485 105.55844116 C-228.54365696 104.2785939 -254.2410059 102.69779933 -279.92285156 100.46386719 C-280.72825378 100.3942276 -281.53365601 100.32458801 -282.36346436 100.25283813 C-286.48109834 99.87986364 -290.52695067 99.374017 -294.59863281 98.63183594 C-294.59863281 98.30183594 -294.59863281 97.97183594 -294.59863281 97.63183594 C-293.87426025 97.62249023 -293.1498877 97.61314453 -292.40356445 97.60351562 C-244.99174223 96.85264133 -196.96510291 91.47306083 -151.58447266 77.24072266 C-149.46813661 76.59182395 -147.342882 75.98477004 -145.21191406 75.38574219 C-137.79300862 73.29285395 -130.65040877 71.02378632 -123.57519531 67.92480469 C-120.36356535 66.52972658 -117.11418412 65.27033639 -113.84863281 64.00683594 C-77.04580872 49.45383116 -36.63209567 29.49514544 -8.20800781 1.25683594 C-5.19373172 -0.62031804 -3.45530322 -0.64716328 0 0 Z " fill="#F8AD07" transform="translate(886.5986328125,1253.3681640625)"/>
<path d="M0 0 C1.921875 1.390625 1.921875 1.390625 3.75 3.25 C10.88571118 9.95324384 18.99931581 15.39141822 27 21 C27.61584961 21.43570312 28.23169922 21.87140625 28.86621094 22.3203125 C73.51153882 53.75711351 125.4557542 73.90906672 178.5703125 85.46533203 C180.57169775 85.9057494 182.56790568 86.36962689 184.5625 86.83984375 C217.98189834 94.56807962 252.81152422 96.34489582 287 97 C287 97.33 287 97.66 287 98 C273.45870824 99.90196569 259.88561632 100.96971514 246.25 101.9375 C245.06102112 102.02270905 243.87204224 102.10791809 242.64703369 102.19570923 C221.73639023 103.67898181 200.81711869 104.76885234 179.875 105.6875 C178.84156212 105.73332277 178.84156212 105.73332277 177.7872467 105.78007126 C167.52649328 106.23489838 157.26456737 106.64136035 147 107 C146.29340744 107.02490509 145.58681488 107.04981018 144.85881042 107.07546997 C117.97438006 108.0135351 91.10120184 108.15802875 64.20214844 108.13037109 C58.59786062 108.12464638 52.99361998 108.12808797 47.38933372 108.13380337 C17.34427946 108.15994836 -12.65613084 108.09431284 -42.625 105.6875 C-43.43365509 105.62408417 -44.24231018 105.56066833 -45.07546997 105.49533081 C-107.8427203 100.5201343 -107.8427203 100.5201343 -119.0625 87.9375 C-122.89420268 82.12814433 -122.57059628 75.78002638 -122 69 C-120.1592077 60.54230564 -115.02005933 54.9492351 -109 49 C-108.42894531 48.40703125 -107.85789063 47.8140625 -107.26953125 47.203125 C-100.26676837 40.47278081 -91.36223061 35.8147203 -83 31 C-82.26910156 30.5781543 -81.53820312 30.15630859 -80.78515625 29.72167969 C-61.88856968 18.96634402 -41.43931181 11.09890813 -20.97528076 3.86401367 C-19.103048 3.20184105 -17.23433689 2.52973797 -15.36572266 1.85742188 C-13.65521729 1.26864258 -13.65521729 1.26864258 -11.91015625 0.66796875 C-10.91121338 0.32016357 -9.91227051 -0.0276416 -8.88305664 -0.38598633 C-5.56900292 -1.09179081 -3.27045391 -0.8217498 0 0 Z " fill="#F8AD07" transform="translate(303,1254)"/>
<path d="M0 0 C10.38280121 5.40547898 16.59050619 14.47310654 20.484375 25.3203125 C21.5525962 30.08810713 21.66591672 34.56388251 21.6484375 39.43359375 C21.66455078 40.31982422 21.68066406 41.20605469 21.69726562 42.11914062 C21.70467113 52.27208709 18.70459073 60.59241045 13.3359375 69.12109375 C12.7790625 70.00796875 12.2221875 70.89484375 11.6484375 71.80859375 C5.62701885 77.8300124 -1.39833485 81.17894524 -9.8515625 81.49609375 C-18.00656623 81.43076662 -23.66244372 77.32376486 -29.6640625 72.12109375 C-39.07146291 60.40584875 -42.07016617 47.0137511 -40.93457031 32.30175781 C-39.54268501 21.08125284 -33.97498898 11.67696175 -25.6015625 4.24609375 C-17.80721962 -1.39236706 -9.3395555 -3.08123165 0 0 Z " fill="#020202" transform="translate(514.6640625,290.87890625)"/>
<path d="M0 0 C2.8857899 3.14356198 3.58408932 5.50061069 3.421875 9.83984375 C2.47106079 14.70836464 -0.54888686 18.45214599 -3.875 22 C-7.21449722 23.5715281 -9.32071297 23.47474671 -13 23 C-15.53263069 21.88904771 -17.93684641 20.62048583 -20.37109375 19.30859375 C-24.41674792 17.29478372 -28.63911014 16.13230123 -33 15 C-33.59941406 14.81566406 -34.19882812 14.63132812 -34.81640625 14.44140625 C-44.73207998 12.43698562 -54.98391367 13.50600058 -64 18 C-64.82757812 18.4125 -65.65515625 18.825 -66.5078125 19.25 C-72.68992191 22.66081898 -77.38574744 27.03794916 -82.26171875 32.12109375 C-85 34 -85 34 -88.6796875 33.91015625 C-92 33 -92 33 -94.4375 31 C-96.63469889 26.78137814 -97.18913031 23.6457327 -96 19 C-88.44170522 5.66306433 -73.90342792 -3.33509181 -59.734375 -8.09765625 C-40.27431171 -13.05489986 -17.01288275 -11.28549436 0 0 Z " fill="#030303" transform="translate(740,315)"/>
<path d="M0 0 C2.97 0.33 5.94 0.66 9 1 C9 1.33 9 1.66 9 2 C3.91913204 2.84681133 -0.84828377 3.09038099 -6 3 C-6 2.67 -6 2.34 -6 2 C-4.02 2 -2.04 2 0 2 C0 1.34 0 0.68 0 0 Z " fill="#EE4B53" transform="translate(707,815)"/>
<path d="M0 0 C2.97 0.33 5.94 0.66 9 1 C9 1.66 9 2.32 9 3 C2.84765625 2.4140625 2.84765625 2.4140625 1 2 C0.67 1.34 0.34 0.68 0 0 Z " fill="#D11922" transform="translate(269,786)"/>
</svg>
