<svg class="icon" viewBox="0 0 1024 1024" version="1.1" xmlns="http://www.w3.org/2000/svg">

<path d="M748.52 494.57c-24.57-24.57-57.23-38.1-91.98-38.1-1.94 0-3.87 0.05-5.8 0.13 3.47-39.04-9.69-79.29-39.51-109.11-25.88-25.88-60.28-40.13-96.87-40.13s-71 14.25-96.87 40.13c-25.88 25.88-40.13 60.28-40.13 96.87 0 4.13 0.19 8.23 0.55 12.3-35.19-1.54-70.9 11.09-97.71 37.91-50.72 50.72-50.72 133.24 0 183.96 25.36 25.36 58.67 38.04 91.98 38.04 33.04 0 66.07-12.48 91.35-37.43l141.34-131.93c2.17-1.92 4.3-3.9 6.37-5.97 12.1-12.1 28.19-18.77 45.31-18.77s33.21 6.67 45.31 18.77c24.98 24.98 24.98 65.64 0 90.62-12.1 12.1-28.19 18.77-45.31 18.77s-33.21-6.67-45.31-18.77c-12.89-12.89-33.78-12.89-46.67 0s-12.89 33.78 0 46.67c25.36 25.36 58.67 38.04 91.98 38.04s66.62-12.68 91.98-38.04c50.71-50.72 50.71-133.24-0.01-183.96z m-305.16-50.2c0-18.96 7.39-36.79 20.8-50.2s31.24-20.8 50.2-20.8 36.79 7.39 50.2 20.8c27.61 27.61 27.68 72.48 0.22 100.18l-3.85 3.6c-12.92 11.26-29.27 17.43-46.57 17.43-18.96 0-36.79-7.39-50.2-20.8s-20.8-31.25-20.8-50.21zM326.87 631.86c-12.1-12.1-18.77-28.19-18.77-45.31s6.67-33.21 18.77-45.31c12.49-12.49 28.9-18.74 45.31-18.74 16.41 0 32.82 6.25 45.31 18.74 12.1 12.1 18.77 28.19 18.77 45.31s-6.67 33.21-18.77 45.31c-24.99 24.98-65.64 24.99-90.62 0z" fill="#4285F4">
</path>
</svg>
