<svg class="icon" viewBox="0 0 1024 1024" version="1.1" xmlns="http://www.w3.org/2000/svg">
<path d="M773.44 567.93c-8.09-29.87-23.3-60.41-41.11-82.71V465c0-58.62-22.98-113.89-64.71-155.62-41.73-41.73-97-64.71-155.62-64.71s-113.89 22.98-155.62 64.71c-41.73 41.73-64.71 97-64.71 155.62v20.22c-17.81 22.3-33.02 52.84-41.11 82.71-5.7 21.06-12.34 59.35 7.15 79.27 11.75 12 32.13 15.79 56.25 10.92 0.26 1.76 0.59 3.53 0.98 5.25-0.61 0.67-1.21 1.31-1.78 1.92-12.19 13.13-16.14 19.75-16.12 48.13 0 19.37 13.21 36.16 37.19 47.26 24.38 11.3 57.62 15.91 91.2 12.65 33.13-3.22 63.44-13.95 86.57-30.5 23.13 16.55 53.44 27.28 86.57 30.5 7.07 0.69 14.12 1.02 21.08 1.02 26.1 0 50.87-4.75 70.12-13.67 23.98-11.1 37.19-27.89 37.19-47.26 0.02-28.38-3.92-35-16.12-48.13-0.57-0.61-1.17-1.25-1.78-1.92 0.39-1.72 0.72-3.49 0.98-5.25 24.12 4.87 44.5 1.08 56.25-10.92 19.49-19.92 12.84-58.21 7.15-79.27z m-25.73 61.08c-6.69 6.84-25.35 6.9-45.37 0.14a13.01 13.01 0 0 0-11.74 1.76 12.98 12.98 0 0 0-5.41 10.57c0 10.45-1.47 17.24-2.46 19.26a12.985 12.985 0 0 0 1.81 14.19c2.78 3.24 5.15 5.8 7.25 8.06 8.14 8.75 9.18 9.88 9.17 30.42 0 11.69-13.86 19.86-22.12 23.68-40.98 18.99-116.13 15.19-158.44-20.64a13.01 13.01 0 0 0-16.8 0c-42.31 35.83-117.46 39.63-158.44 20.64-8.26-3.82-22.12-11.99-22.12-23.68-0.01-20.54 1.03-21.67 9.17-30.42 2.1-2.26 4.47-4.82 7.25-8.06 3.39-3.94 4.1-9.52 1.81-14.19-0.99-2.02-2.46-8.81-2.46-19.26a12.98 12.98 0 0 0-5.41-10.57c-2.24-1.61-4.9-2.44-7.59-2.44-1.39 0-2.8 0.22-4.15 0.68-20.02 6.76-38.67 6.7-45.37-0.14-5.53-5.66-9.02-23.27-0.63-54.28 7.49-27.67 22.4-56.96 38.92-76.45 1.99-2.35 3.09-5.33 3.09-8.41V465c0-107.16 87.17-194.33 194.33-194.33S706.33 357.84 706.33 465v24.87c0 3.08 1.1 6.06 3.09 8.41 16.52 19.49 31.43 48.78 38.92 76.44 8.39 31.02 4.9 48.63-0.63 54.29z" fill="#00B7E4">
</path>
<path d="M460.17 372.12c-12.57 0-22.81 10.23-22.81 22.81s10.23 22.81 22.81 22.81 22.8-10.23 22.8-22.81-10.22-22.81-22.8-22.81zM563.83 372.12c-12.57 0-22.8 10.23-22.8 22.81s10.23 22.81 22.8 22.81c12.58 0 22.81-10.23 22.81-22.81s-10.24-22.81-22.81-22.81z" fill="#00B7E4">
</path>
</svg>
