<svg width="778" height="210" viewBox="0 0 778 210" fill="none" xmlns="http://www.w3.org/2000/svg">
<g clip-path="url(#clip0_1799_3840)">
<path fill-rule="evenodd" clip-rule="evenodd" d="M339.997 37.7022C355.561 36.7059 369.519 42.103 379.073 52.9522C397.074 73.35 392.781 102.716 391.008 110.216C386.439 129.506 374.974 143.456 360.878 151.786C344.4 161.501 323.325 162.69 311.306 158.566V188.596C311.306 198.393 303.856 206.613 294.108 207.609L270.845 209.962C266.331 210.405 262.427 206.89 262.426 202.352V71.3018C262.426 62.6398 261.319 57.7134 258.827 55.2501C258.495 54.9456 258.134 54.6681 257.774 54.419C256.666 53.6994 256.473 52.1224 257.525 51.2921C262.565 47.2791 271.925 43.8469 281.923 43.8468C291.92 43.8468 299.537 46.1995 304.882 51.7071C310.77 45.8769 323.823 38.9204 339.233 37.754L339.997 37.7022ZM327.618 72.9347C325.458 72.9347 323.02 73.3777 320.694 74.6231C316.402 76.9203 311.278 81.9581 311.278 92.752V127.043C311.278 128.897 312.774 130.475 314.63 130.558C320.612 130.879 328.337 126.292 333.799 119.388L334.319 118.685C343.486 106.479 342.988 92.9452 342.323 87.6866C341.492 80.823 338.751 76.5326 333.711 74.1524C332.492 73.5712 330.249 72.9347 327.618 72.9347Z" fill="#00D9C5"/>
<path fill-rule="evenodd" clip-rule="evenodd" d="M724.281 37.7022C739.845 36.7059 753.803 42.103 763.357 52.9522C781.358 73.35 777.065 102.716 775.293 110.216C770.723 129.506 759.258 143.456 745.162 151.786C728.684 161.501 707.61 162.69 695.591 158.566V188.596C695.591 198.393 688.14 206.613 678.392 207.609L655.13 209.962C650.616 210.405 646.711 206.89 646.711 202.352V71.3018C646.711 62.6397 645.603 57.7134 643.111 55.2501C642.806 54.9456 642.446 54.6681 642.086 54.419C640.978 53.6993 640.785 52.1223 641.837 51.2921C646.877 47.279 656.238 43.8468 666.235 43.8468C676.232 43.8468 683.848 46.1995 689.193 51.7071C695.175 45.7843 708.551 38.6986 724.281 37.7022ZM711.929 72.9347C709.769 72.9347 707.333 73.3779 705.007 74.6231C700.714 76.9203 695.591 81.9581 695.591 92.752V127.043C695.591 128.897 697.086 130.475 698.941 130.558C704.924 130.879 712.648 126.292 718.11 119.388L718.632 118.685C727.798 106.479 727.3 92.9452 726.635 87.6866C725.805 80.8229 723.062 76.5326 718.022 74.1524C716.804 73.5712 714.56 72.9347 711.929 72.9347Z" fill="#00D9C5"/>
<path d="M13.9079 0.584067C14.8218 -0.384297 16.4283 -0.107227 16.9821 1.11043C18.616 4.84661 21.911 7.22733 24.3757 8.30672C28.6128 10.1611 34.2629 9.99469 41.7956 9.46883C45.9917 9.16535 50.2978 8.77888 50.3249 8.77645L133.213 0.446372C137.726 0.00364268 141.631 3.54568 141.632 8.05672L141.659 28.7315C141.659 37.5603 134.957 44.9503 126.178 45.836L102.362 48.2432C101.393 48.3263 100.644 49.1574 100.644 50.1261V145.693C100.644 155.519 93.195 163.711 83.447 164.707L57.6081 167.336C53.0942 167.779 49.1893 164.237 49.1891 159.726V55.7169C49.1891 54.61 48.2205 53.7236 47.113 53.8341C44.6206 54.0832 40.2724 54.5263 36.1462 54.9415C18.7825 56.6851 10.7232 51.8973 6.09832 46.3067C-0.271184 38.6127 0.309768 28.2889 2.35906 20.5118C4.24223 13.3712 9.06148 5.67658 13.9079 0.584067Z" fill="#00D9C5"/>
<path d="M398.212 0.584067C399.126 -0.384372 400.732 -0.107253 401.286 1.11043C402.92 4.84658 406.215 7.2273 408.679 8.30672C412.917 10.1611 418.567 9.99469 426.099 9.46883C430.291 9.1657 434.592 8.77976 434.629 8.77645L517.516 0.446372C522.03 0.00356758 525.935 3.54564 525.935 8.05672L525.963 28.7315C525.963 37.5604 519.261 44.9503 510.482 45.836L486.666 48.2432C485.696 48.3263 484.948 49.1574 484.948 50.1261V145.693C484.948 155.519 477.499 163.711 467.751 164.707L441.913 167.336C437.399 167.779 433.494 164.237 433.494 159.726V55.7169C433.494 54.6099 432.524 53.7235 431.417 53.8341C428.924 54.0832 424.576 54.5263 420.45 54.9415C403.086 56.6851 395.027 51.8973 390.402 46.3067C384.032 38.6126 384.614 28.2889 386.664 20.5118C388.547 13.3712 393.365 5.67658 398.212 0.584067Z" fill="#00D9C5"/>
<path fill-rule="evenodd" clip-rule="evenodd" d="M197.795 41.546C208.207 41.546 217.679 43.0409 225.516 44.9229C237.785 47.8843 243.739 53.1982 243.739 61.169V133.267C243.739 141.659 244.778 146.545 247.109 149.081L247.311 149.319C247.616 149.624 247.976 149.9 248.336 150.149C249.471 150.869 249.637 152.446 248.585 153.276C243.544 157.289 234.157 160.722 224.187 160.722C214.217 160.722 206.574 158.369 201.229 152.861C195.247 158.812 181.899 166.589 166.141 166.866C151.214 167.115 136.619 160.804 127.065 149.955C109.092 129.557 114.105 103.597 116.071 96.1241C120.779 78.3005 132.992 62.8296 149.608 53.6964C166.224 44.5632 182.979 41.546 197.795 41.546ZM191.536 74.0382C185.36 73.7062 177.329 78.605 171.845 85.8839C162.679 98.0893 163.205 111.623 163.842 116.882C164.673 123.746 167.415 128.036 172.455 130.416C173.673 130.997 175.917 131.634 178.548 131.634C180.68 131.634 183.117 131.191 185.443 129.945C189.708 127.648 194.832 122.611 194.832 111.817L194.859 111.845V77.5538C194.859 75.6995 193.364 74.1212 191.536 74.0382Z" fill="#00D9C5"/>
<path fill-rule="evenodd" clip-rule="evenodd" d="M582.1 41.546C592.513 41.546 601.985 43.0409 609.822 44.9229C622.09 47.8844 628.045 53.1982 628.045 61.169V133.267C628.045 141.929 629.152 146.856 631.644 149.319C631.949 149.624 632.309 149.9 632.669 150.149C633.804 150.869 633.971 152.446 632.919 153.276C627.878 157.29 618.49 160.722 608.52 160.722C598.55 160.722 590.907 158.369 585.562 152.861C579.58 158.812 566.232 166.589 550.474 166.866C535.547 167.115 520.952 160.804 511.398 149.955C493.397 129.557 498.409 103.597 500.376 96.1241C505.084 78.3006 517.297 62.8297 533.913 53.6964C550.529 44.5631 567.256 41.546 582.1 41.546ZM575.841 74.0382C569.666 73.7061 561.634 78.6049 556.151 85.8839C546.984 98.0893 547.511 111.623 548.148 116.882C548.979 123.746 551.72 128.036 556.76 130.416C557.979 130.997 560.222 131.634 562.853 131.634C564.986 131.634 567.423 131.191 569.749 129.945C574.014 127.648 579.137 122.611 579.137 111.817L579.165 111.845V77.5538C579.165 75.6995 577.669 74.1212 575.841 74.0382Z" fill="#00D9C5"/>
</g>
<defs>
<clipPath id="clip0_1799_3840">
<rect width="778" height="210" fill="white"/>
</clipPath>
</defs>
</svg>
